<?xml version="1.0" standalone="no"?>
<!DOCTYPE svg PUBLIC "-//W3C//DTD SVG 20010904//EN"
 "http://www.w3.org/TR/2001/REC-SVG-20010904/DTD/svg10.dtd">
<svg version="1.0" xmlns="http://www.w3.org/2000/svg"
 width="600.000000pt" height="600.000000pt" viewBox="0 0 600.000000 600.000000"
 preserveAspectRatio="xMidYMid meet">
<metadata>
Created by potrace 1.11, written by Peter Selinger 2001-2013
</metadata>
<g transform="translate(0.000000,600.000000) scale(0.100000,-0.100000)"
fill="#000000" stroke="none">
<path d="M0 2990 l0 -2840 870 0 870 0 0 690 0 689 448 470 c246 258 449 470
452 470 3 0 273 -521 600 -1159 l594 -1160 686 0 c377 0 864 -3 1083 -7 368
-6 397 -5 397 11 0 9 -484 807 -1076 1772 l-1075 1756 23 26 c40 45 1786 1852
1922 1990 l131 132 -1180 0 -1180 0 -912 -1066 -913 -1066 0 1066 0 1066 -870
0 -870 0 0 -2840z"/>
</g>
</svg>
